<?xml version="1.0" ?>
<!DOCTYPE svg  PUBLIC '-//W3C//DTD SVG 1.1//EN'  'http://www.w3.org/Graphics/SVG/1.1/DTD/svg11.dtd'>
<!-- Uploaded to: SVG Repo, www.svgrepo.com, Generator: SVG Repo Mixer Tools -->
<svg fill="#000000" width="800px" height="800px" viewBox="0 0 512 512" version="1.1" xml:space="preserve" xmlns="http://www.w3.org/2000/svg" xmlns:xlink="http://www.w3.org/1999/xlink">
<g id="A_-_110_x2C__success_x2C__bulb_x2C__light_x2C__focus_x2C_">
<g>
<path d="M198.385,312.389l-48.729,48.745c-29.31-29.247-45.43-67.488-45.43-107.957c0-9.541,0.908-19.035,2.699-28.332    l1.303,2.193c0.613,1.032,1.704,1.606,2.823,1.606c0.569,0,1.146-0.148,1.671-0.46c1.558-0.925,2.07-2.938,1.146-4.495    l-4.871-8.201c0.213-1.669-0.895-3.266-2.651-3.676c-0.392-0.092-0.783-0.102-1.164-0.069c-0.747-0.066-1.498,0.109-2.125,0.532    l-9.614,6.481c-1.502,1.012-1.898,3.051-0.887,4.553c1.013,1.502,3.052,1.899,4.554,0.887l3.183-2.146    c-2.076,10.203-3.144,20.637-3.144,31.128c0,42.322,16.902,82.307,47.623,112.843l-17.555,17.563l30.356,30.359l43.734-43.755    V351.67v-37.198c-0.681-0.463-1.369-0.952-2.061-1.455C198.958,312.809,198.67,312.6,198.385,312.389z"/>
<path d="M233.573,419.574c0,4.068,3.292,7.378,7.339,7.378h30.142c4.069,0,7.378-3.31,7.378-7.378v-15.586h-44.859V419.574z"/>
<rect height="86.333" width="9.57" x="251.214" y="262.057"/>
<path d="M207.867,371.545v11.521c0,7.919,6.443,14.362,14.362,14.362h8.064h51.418h8.066c7.918,0,14.36-6.443,14.36-14.362v-0.465    h-64.915c-1.812,0-3.28-1.468-3.28-3.28c0-1.811,1.469-3.279,3.28-3.279h64.915v-4.497v-16.596h-96.271V371.545z"/>
<path d="M101.321,160.812l15.179-15.177l15.182-15.181l-27.208-27.208c-4.034-4.048-9.418-6.274-15.166-6.274    c-5.75,0-11.144,2.228-15.19,6.274c-4.06,4.06-6.29,9.475-6.279,15.25c0.011,5.738,2.238,11.101,6.27,15.103L101.321,160.812z"/>
<polygon points="98.679,412.13 71.443,469.724 129.04,442.488 152.923,418.568 122.579,388.221   "/>
<polygon points="120.484,180.035 150.888,149.662 136.321,135.092 105.955,165.454   "/>
<path d="M159.837,219.398c0.112-0.74,0.24-1.475,0.369-2.21c0.022-0.13,0.042-0.261,0.065-0.391    c0.092-0.513,0.195-1.024,0.295-1.536c0.071-0.363,0.14-0.728,0.216-1.09c0.105-0.506,0.217-1.01,0.331-1.514    c0.08-0.354,0.16-0.708,0.244-1.061c0.123-0.519,0.249-1.036,0.38-1.552c0.078-0.308,0.16-0.614,0.241-0.921    c0.148-0.56,0.296-1.12,0.455-1.676c0.028-0.099,0.059-0.197,0.087-0.296c0.628-2.185,1.333-4.346,2.113-6.48    c0.013-0.036,0.025-0.071,0.039-0.107c3.141-8.568,7.483-16.698,12.961-24.158l-22.105-22.079l-30.407,30.349L159.837,219.398z"/>
<path d="M410.678,160.812l27.209-27.205c4.037-4.009,6.263-9.374,6.273-15.111c0.012-5.775-2.218-11.19-6.273-15.251    c-4.049-4.045-9.444-6.273-15.195-6.273c-5.749,0-11.133,2.226-15.162,6.27l-27.209,27.212l15.181,15.181L410.678,160.812z"/>
<polygon points="389.438,388.209 359.075,418.569 382.928,442.488 440.535,469.729 413.359,412.129   "/>
<path d="M388.68,177.234c0.134,0.239,0.287,0.469,0.479,0.675c0.247,0.266,0.528,0.464,0.825,0.627l1.501,1.5l1.476-1.478    c0.287-0.154,0.562-0.338,0.805-0.586c9.651,21.607,14.54,44.799,14.54,69.01c0,26.731-6.225,52.925-18.026,76.267l-0.99-3.565    c-0.484-1.745-2.295-2.769-4.039-2.283c-1.744,0.484-2.768,2.293-2.283,4.038l3.24,11.666c0.243,0.874,0.836,1.608,1.64,2.029    c0.063,0.031,0.13,0.044,0.192,0.072c0.161,0.075,0.322,0.137,0.488,0.184c0.055,0.015,0.11,0.023,0.167,0.036    c0.222,0.05,0.446,0.081,0.67,0.081c0.159,0,0.316-0.015,0.472-0.039c0.083-0.013,0.165-0.032,0.248-0.051    c0.055-0.013,0.109-0.025,0.164-0.042c0.066-0.019,0.134-0.028,0.199-0.051l10.945-3.818c1.711-0.597,2.613-2.467,2.018-4.177    c-0.598-1.71-2.468-2.615-4.178-2.017l-3.1,1.081c12.264-24.314,18.732-51.585,18.732-79.411c0-26.068-5.452-51.001-16.178-74.162    l7.354-7.369l-30.357-30.36l-14.588,14.586l2.6,2.597L388.68,177.234z"/>
<path d="M312.105,305.3c21.793-17.142,34.592-43.243,34.592-71.296c0-2.823-0.136-5.614-0.391-8.373    c-0.041-0.468-0.088-0.935-0.137-1.401c-0.049-0.457-0.101-0.914-0.157-1.369c-0.087-0.695-0.18-1.388-0.282-2.079    c-0.059-0.407-0.123-0.814-0.187-1.219c-0.117-0.717-0.239-1.434-0.372-2.147c-0.063-0.348-0.131-0.694-0.199-1.041    c-0.145-0.729-0.299-1.457-0.461-2.181c-0.051-0.231-0.1-0.464-0.152-0.694c-0.199-0.864-0.417-1.723-0.643-2.578    c-0.091-0.351-0.188-0.699-0.283-1.048c-0.17-0.616-0.348-1.229-0.531-1.84c-0.104-0.348-0.205-0.695-0.313-1.042    c-0.24-0.769-0.492-1.533-0.754-2.295c-0.152-0.446-0.31-0.89-0.471-1.333c-0.146-0.411-0.3-0.82-0.453-1.229    c-0.395-1.047-0.805-2.085-1.236-3.114c-0.042-0.102-0.082-0.205-0.126-0.308c-0.258-0.607-0.523-1.21-0.794-1.811    c-0.064-0.143-0.129-0.284-0.192-0.426c-14.302-31.335-45.931-53.168-82.564-53.168c-36.7,0-68.378,21.914-82.639,53.344    c-0.017,0.038-0.034,0.074-0.051,0.111c-0.828,1.832-1.593,3.696-2.3,5.59c-0.106,0.287-0.213,0.572-0.317,0.859    c-0.191,0.528-0.38,1.058-0.561,1.59c-0.156,0.456-0.303,0.914-0.451,1.373c-0.227,0.702-0.445,1.408-0.655,2.117    c-0.142,0.48-0.282,0.959-0.415,1.44c-0.121,0.433-0.239,0.867-0.353,1.302c-0.172,0.657-0.335,1.317-0.493,1.979    c-0.117,0.49-0.228,0.982-0.336,1.477c-0.131,0.593-0.257,1.187-0.375,1.782c-0.082,0.412-0.162,0.824-0.238,1.237    c-0.113,0.61-0.217,1.222-0.317,1.834c-0.091,0.559-0.177,1.12-0.258,1.683c-0.086,0.599-0.169,1.199-0.244,1.8    c-0.059,0.474-0.112,0.95-0.164,1.427c-0.049,0.459-0.093,0.921-0.135,1.383c-0.254,2.756-0.39,5.546-0.39,8.367    c0,28.067,12.813,54.181,34.625,71.322c0.069,0.046,0.142,0.083,0.208,0.135c0.85,0.675,1.674,1.3,2.489,1.901    c0.416,0.303,0.828,0.608,1.25,0.904c0.073,0.052,0.146,0.102,0.218,0.153c0.753,0.525,1.513,1.042,2.285,1.547    c0.132,0.086,0.238,0.198,0.354,0.301c0.086,0.075,0.185,0.139,0.262,0.223c0.112,0.121,0.195,0.263,0.287,0.399    c0.059,0.087,0.133,0.165,0.183,0.256c0.085,0.158,0.137,0.33,0.196,0.5c0.03,0.086,0.076,0.164,0.099,0.253    c0.067,0.262,0.103,0.534,0.103,0.813v35.679h36.788v-86.333h-21.704c-15.171,0-27.514-12.359-27.514-27.549    c0-15.188,12.343-27.546,27.514-27.546c15.189,0,27.546,12.358,27.546,27.546c0,1.812-1.468,3.28-3.28,3.28    c-1.811,0-3.28-1.468-3.28-3.28c0-11.572-9.414-20.987-20.986-20.987c-11.554,0-20.954,9.415-20.954,20.987    c0,11.574,9.4,20.989,20.954,20.989h66.391c11.571,0,20.986-9.416,20.986-20.989c0-11.572-9.415-20.987-20.986-20.987    c-11.572,0-20.986,9.415-20.986,20.987c0,1.812-1.469,3.28-3.279,3.28c-1.813,0-3.279-1.468-3.279-3.28    c0-15.188,12.355-27.546,27.545-27.546s27.546,12.358,27.546,27.546c0,15.19-12.356,27.549-27.546,27.549h-21.998v86.333h36.794    v-35.679c0-0.278,0.036-0.551,0.103-0.813c0.023-0.09,0.07-0.169,0.101-0.255c0.059-0.169,0.11-0.34,0.196-0.498    c0.047-0.089,0.121-0.164,0.178-0.249c0.093-0.139,0.178-0.283,0.291-0.406c0.072-0.079,0.166-0.139,0.246-0.21    c0.121-0.107,0.232-0.224,0.37-0.313c0.754-0.494,1.497-0.999,2.233-1.514c0.115-0.08,0.23-0.16,0.346-0.242    c0.336-0.237,0.668-0.482,1.001-0.724c0.866-0.636,1.744-1.303,2.655-2.025C311.937,305.398,312.022,305.354,312.105,305.3z"/>
<path d="M313.617,312.392c-0.315,0.231-0.632,0.46-0.95,0.688c-0.663,0.481-1.319,0.95-1.97,1.392v37.198v18.518l43.72,43.763    l30.382-30.379L313.617,312.392z"/>
<path d="M346.446,198.245c0.031,0.083,0.063,0.164,0.097,0.246c0.255,0.647,0.502,1.297,0.743,1.949    c0.061,0.167,0.121,0.337,0.182,0.505c0.226,0.619,0.446,1.239,0.659,1.863c0.043,0.128,0.084,0.258,0.126,0.386    c0.362,1.083,0.702,2.171,1.024,3.265c0.108,0.363,0.219,0.723,0.32,1.087c0.125,0.436,0.24,0.875,0.357,1.313    c0.117,0.438,0.234,0.876,0.346,1.317c0.105,0.419,0.207,0.84,0.308,1.262c0.111,0.466,0.22,0.934,0.323,1.403    c0.09,0.407,0.182,0.814,0.268,1.224c0.104,0.499,0.201,1.001,0.299,1.502c0.072,0.385,0.152,0.771,0.221,1.157    c0.131,0.725,0.251,1.453,0.365,2.183c0.025,0.163,0.057,0.325,0.082,0.489l34.684-34.718l-30.394-30.362l-22.089,22.09    C339.349,183.188,343.39,190.526,346.446,198.245z"/>
<path d="M256.003,70.146c1.811,0,3.28-1.468,3.28-3.28V45.551c0-1.812-1.469-3.28-3.28-3.28c-1.812,0-3.28,1.468-3.28,3.28v21.314    C252.724,68.678,254.192,70.146,256.003,70.146z"/>
<path d="M321.609,105.72c0.529,0,1.067-0.128,1.564-0.399l19.586-10.658c1.593-0.866,2.18-2.858,1.314-4.449    c-0.865-1.591-2.857-2.179-4.449-1.313l-19.586,10.658c-1.59,0.866-2.18,2.857-1.314,4.448    C319.32,105.1,320.447,105.72,321.609,105.72z"/>
<path d="M169.246,94.663l19.587,10.658c0.498,0.271,1.035,0.399,1.565,0.399c1.163,0,2.289-0.62,2.883-1.712    c0.866-1.591,0.278-3.583-1.313-4.448l-19.587-10.658c-1.59-0.866-3.582-0.278-4.448,1.313    C167.067,91.805,167.655,93.797,169.246,94.663z"/>
<path d="M290.437,82.046c0.536,0.33,1.13,0.487,1.717,0.487c1.101,0,2.177-0.554,2.796-1.561l6.914-11.234    c0.947-1.542,0.467-3.563-1.074-4.512c-1.545-0.95-3.564-0.469-4.514,1.074l-6.913,11.234    C288.414,79.077,288.894,81.096,290.437,82.046z"/>
<path d="M342.057,134.733h-13.825c-1.812,0-3.28,1.468-3.28,3.28c0,1.811,1.469,3.28,3.28,3.28h13.825    c1.813,0,3.28-1.469,3.28-3.28C345.337,136.201,343.869,134.733,342.057,134.733z"/>
<path d="M169.95,141.292h13.826c1.812,0,3.28-1.469,3.28-3.28c0-1.812-1.468-3.28-3.28-3.28H169.95c-1.812,0-3.28,1.468-3.28,3.28    C166.67,139.824,168.138,141.292,169.95,141.292z"/>
<path d="M217.096,80.972c0.62,1.007,1.695,1.561,2.797,1.561c0.586,0,1.18-0.157,1.716-0.487c1.542-0.95,2.023-2.969,1.074-4.512    l-6.913-11.234c-0.95-1.543-2.969-2.022-4.513-1.074c-1.542,0.949-2.023,2.97-1.074,4.512L217.096,80.972z"/>
<path d="M256.003,101.184c1.811,0,3.28-1.468,3.28-3.28V85.877c0-1.811-1.469-3.28-3.28-3.28c-1.812,0-3.28,1.469-3.28,3.28    v12.027C252.724,99.716,254.192,101.184,256.003,101.184z"/>
<path d="M290.789,121.274c0.561,0,1.13-0.145,1.65-0.447l10.367-6.048c1.565-0.913,2.094-2.921,1.182-4.486    c-0.914-1.565-2.922-2.094-4.486-1.181l-10.369,6.048c-1.564,0.913-2.094,2.921-1.18,4.486    C288.563,120.691,289.66,121.274,290.789,121.274z"/>
<path d="M209.209,114.78l10.401,6.049c0.519,0.301,1.086,0.444,1.646,0.444c1.13,0,2.23-0.584,2.839-1.631    c0.911-1.566,0.379-3.574-1.187-4.484l-10.402-6.049c-1.565-0.91-3.573-0.379-4.484,1.187    C207.111,111.862,207.643,113.87,209.209,114.78z"/>
<path d="M273.516,107.726c0.518,0.3,1.084,0.443,1.642,0.443c1.134,0,2.233-0.586,2.841-1.635l3.676-6.336    c0.907-1.567,0.375-3.575-1.192-4.483c-1.568-0.907-3.574-0.373-4.483,1.192l-3.674,6.336    C271.414,104.81,271.949,106.817,273.516,107.726z"/>
<path d="M234.015,106.533c0.608,1.049,1.709,1.635,2.84,1.635c0.558,0,1.125-0.143,1.642-0.443    c1.567-0.909,2.101-2.916,1.192-4.482l-3.674-6.337c-0.908-1.565-2.915-2.099-4.482-1.192c-1.567,0.909-2.102,2.916-1.192,4.482    L234.015,106.533z"/>
</g>
</g>
<g id="Layer_1"/>
</svg>